<svg width="52.928001403808594" height="52.5530090332031" xmlns="http://www.w3.org/2000/svg" xmlns:svg="http://www.w3.org/2000/svg">
 <!-- Generator: Sketch 49.3 (51167) - http://www.bohemiancoding.com/sketch -->
 <title>brands-colors</title>
 <desc>Created with Sketch.</desc>
 <g>
  <title>Layer 1</title>
  <g fill-rule="evenodd" fill="none" id="Page-1">
   <g fill-rule="nonzero" id="brands-colors">
    <g id="Khamsat">
     <rect height="52.928" width="52.928" y="-0.375" x="1" fill="transparent" id="rect45"/>
     <path fill="rgb(243, 173, 45)" id="path47" d="m24.213,27.105c0.5,-0.549 1.083,-0.938 1.742,-1.179l0,-4.705c-1.954,0.321 -3.629,1.219 -5.022,2.702c-1.777,1.893 -2.668,4.167 -2.668,6.826l4.564,0c0.001,-1.415 0.462,-2.629 1.384,-3.644"/>
     <polygon points="25.954999923706055,35.31298828125 18.264999389648438,35.31298828125 18.264999389648438,37.597015380859375 18.264999389648438,39.87799072265625 20.077999114990234,39.87799072265625 23.322999954223633,39.87799072265625 25.954999923706055,39.87799072265625 " fill="rgb(243, 173, 45)" id="polygon49"/>
     <path fill="rgb(243, 173, 45)" id="path51" d="m34.242,23.815c-1.823,-1.75 -4.02,-2.66 -6.591,-2.731c-0.159,0 -0.315,0.003 -0.47,0.01l0,4.572c0.202,-0.017 0.408,-0.024 0.622,-0.019c1.287,0.044 2.386,0.533 3.298,1.469c0.916,0.936 1.381,2.046 1.396,3.332l0,0.022l0,0.128l-0.024,0.128c-0.07,1.271 -0.568,2.354 -1.498,3.247c-0.931,0.893 -2.037,1.339 -3.323,1.339l-0.47,0l0,4.565l0.622,0c2.499,-0.043 4.646,-0.954 6.438,-2.732c1.793,-1.781 2.727,-3.919 2.797,-6.419l0,-0.02l0,-0.107l0,-0.128l0,-0.129c-0.041,-2.601 -0.976,-4.776 -2.797,-6.527"/>
     <path fill="rgb(243, 173, 45)" id="path53" d="m25.955,12.597l-8.067,0l0,14.206c0.847,-2.494 2.426,-4.401 4.744,-5.723l0,-3.74l3.323,0l0,-4.743z"/>
     <rect height="4.743" width="8.68" y="12.598" x="27.181" fill="rgb(243, 173, 45)" id="rect55"/>
    </g>
   </g>
  </g>
 </g>
</svg>
