<svg xmlns="http://www.w3.org/2000/svg" version="1.0" width="110.000000pt" height="100.000000pt" viewBox="0 0 110.000000 100.000000" preserveAspectRatio="xMidYMid meet">
<metadata>
Created by potrace 1.15, written by Peter Selinger 2001-2017
</metadata>
<g transform="translate(0.000000,100.000000) scale(0.100000,-0.100000)" fill="#000000" stroke="none">
<path d="M330 977 c-133 -48 -226 -130 -287 -254 l-38 -77 0 -130 c0 -122 2 -135 28 -191 15 -32 40 -75 54 -94 l27 -34 13 38 c12 35 11 42 -17 99 -79 160 -51 333 75 465 65 68 128 105 216 126 81 19 128 18 209 -3 68 -18 155 -11 147 12 -2 6 -30 21 -63 35 -49 21 -79 25 -179 28 -106 3 -128 1 -185 -20z" style="&#10;    fill: white;&#10;"/>
<path d="M945 923 c-140 -17 -360 -79 -507 -143 -98 -43 -208 -107 -208 -121 0 -5 26 -9 58 -9 l59 0 -67 -132 c-36 -73 -83 -183 -103 -245 -37 -110 -73 -261 -65 -269 3 -2 32 31 65 74 168 217 351 355 593 448 l75 29 -101 3 c-55 1 -143 -4 -195 -11 -52 -8 -96 -13 -98 -11 -9 8 110 119 187 174 82 58 350 200 379 200 7 0 13 5 13 10 0 10 -25 11 -85 3z" style="&#10;    fill: white;&#10;"/>
<path d="M862 802 l-24 -18 31 -49 c56 -88 78 -190 62 -281 -32 -175 -164 -311 -340 -350 -84 -19 -152 -14 -239 16 l-57 19 -23 -26 c-28 -31 -27 -31 68 -63 83 -28 219 -30 306 -5 321 92 463 479 274 746 -25 34 -27 34 -58 11z" style="&#10;    fill: white;&#10;"/>
</g>
</svg>
