<svg xmlns="http://www.w3.org/2000/svg" xmlns:xlink="http://www.w3.org/1999/xlink" viewBox="0 0 53 1016" version="1.1">
    <!-- Generator: Sketch 49.3 (51167) - http://www.bohemiancoding.com/sketch -->
    <title>brands-colors</title>
    <desc>Created with Sketch.</desc>
    <defs/>
    <g id="Page-1" stroke="none" stroke-width="1" fill="none" fill-rule="evenodd">
        <g id="brands-colors" fill-rule="nonzero">
            
            
            
            <g id="Khamsat" transform="translate(0.000000, 275.000000)">
                <rect id="rect45" fill="#F3AD2D" x="0" y="0.625" width="52.928" height="52.928" style="&#10;    fill: transparent;&#10;"/>
                <path d="M23.213,28.105 C23.713,27.556 24.296,27.167 24.955,26.926 L24.955,22.221 C23.001,22.542 21.326,23.44 19.933,24.923 C18.156,26.816 17.265,29.09 17.265,31.749 L21.829,31.749 C21.83,30.334 22.291,29.12 23.213,28.105" id="path47" fill="#353535" style="&#10;    fill: rgb(243, 173, 45);&#10;"/>
                <polygon id="polygon49" fill="#353535" points="24.955 36.313 17.265 36.313 17.265 38.597 17.265 40.878 19.078 40.878 22.323 40.878 24.955 40.878" style="&#10;    fill: rgb(243, 173, 45);&#10;"/>
                <path d="M33.242,24.815 C31.419,23.065 29.222,22.155 26.651,22.084 C26.492,22.084 26.336,22.087 26.181,22.094 L26.181,26.666 C26.383,26.649 26.589,26.642 26.803,26.647 C28.09,26.691 29.189,27.18 30.101,28.116 C31.017,29.052 31.482,30.162 31.497,31.448 L31.497,31.47 L31.497,31.598 L31.473,31.726 C31.403,32.997 30.905,34.08 29.975,34.973 C29.044,35.866 27.938,36.312 26.652,36.312 L26.182,36.312 L26.182,40.877 L26.804,40.877 C29.303,40.834 31.45,39.923 33.242,38.145 C35.035,36.364 35.969,34.226 36.039,31.726 L36.039,31.706 L36.039,31.599 L36.039,31.471 L36.039,31.342 C35.998,28.741 35.063,26.566 33.242,24.815" id="path51" fill="#353535" style="&#10;    fill: rgb(243, 173, 45);&#10;"/>
                <path d="M24.955,13.597 L16.888,13.597 L16.888,27.803 C17.735,25.309 19.314,23.402 21.632,22.08 L21.632,18.34 L24.955,18.34 L24.955,13.597 Z" id="path53" fill="#353535" style="&#10;    fill: rgb(243, 173, 45);&#10;"/>
                <rect id="rect55" fill="#353535" x="26.181" y="13.598" width="8.68" height="4.743" style="&#10;    fill: rgb(243, 173, 45);&#10;"/>
            </g>
            
            
            
            
        </g>
    </g>
</svg>
