<svg xmlns="http://www.w3.org/2000/svg" id="Layer_1" height="512" viewBox="0 0 128 128" width="512" data-name="Layer 1"><path d="m121.5 6.5v106.15a8.843 8.843 0 0 1 -8.85 8.85h-88.05l-.41-97.31v-17.69z" fill="#16a870" style="&#10;    fill: #d29b01;&#10;"/><path d="m112.65 121.5h-97.3a8.847 8.847 0 0 1 -8.85-8.85v-88.46h97.31v88.46a8.845 8.845 0 0 0 8.84 8.85z" fill="#1bce89" style="&#10;    fill: #deb05b;&#10;"/><g fill="#f2f2f2"><path d="m29.236 37.391v14h-2.136l-7.72-9.48v9.48h-2.58v-14h2.14l7.72 9.48v-9.48z"/><path d="m44.5 49.211v2.18h-10.5v-14h10.22v2.18h-7.62v3.641h6.76v2.14h-6.76v3.86z"/><path d="m68.657 37.391-4.64 14h-2.76l-3.457-10.361-3.521 10.36h-2.779l-4.64-14h2.7l3.48 10.64 3.62-10.64h2.4l3.54 10.7 3.581-10.7z"/><path d="m72.987 51.131a6.506 6.506 0 0 1 -2.387-1.221l.9-2.02a7.11 7.11 0 0 0 2.107 1.11 7.684 7.684 0 0 0 2.51.43 4.342 4.342 0 0 0 2.33-.5 1.514 1.514 0 0 0 .771-1.32 1.276 1.276 0 0 0 -.431-.989 3 3 0 0 0 -1.09-.61q-.659-.22-1.8-.5a21.006 21.006 0 0 1 -2.59-.76 4.27 4.27 0 0 1 -1.7-1.19 3.2 3.2 0 0 1 -.71-2.189 3.738 3.738 0 0 1 .63-2.11 4.265 4.265 0 0 1 1.9-1.51 7.7 7.7 0 0 1 3.109-.561 10.071 10.071 0 0 1 2.521.32 6.944 6.944 0 0 1 2.14.92l-.819 2.02a8.124 8.124 0 0 0 -1.921-.819 7.185 7.185 0 0 0 -1.939-.28 4.051 4.051 0 0 0 -2.29.521 1.6 1.6 0 0 0 -.75 1.38 1.245 1.245 0 0 0 .43.979 3.119 3.119 0 0 0 1.09.6q.661.22 1.8.5a18.731 18.731 0 0 1 2.56.75 4.381 4.381 0 0 1 1.71 1.189 3.136 3.136 0 0 1 .71 2.16 3.686 3.686 0 0 1 -.63 2.1 4.281 4.281 0 0 1 -1.91 1.5 7.777 7.777 0 0 1 -3.12.561 10.681 10.681 0 0 1 -3.131-.461z"/><path d="m92.808 65.96h-75.308a1.75 1.75 0 0 1 0-3.5h75.308a1.75 1.75 0 0 1 0 3.5z"/><path d="m92.808 80.4h-75.308a1.75 1.75 0 0 1 0-3.5h75.308a1.75 1.75 0 0 1 0 3.5z"/><path d="m92.808 65.96h-75.308a1.75 1.75 0 0 1 0-3.5h75.308a1.75 1.75 0 0 1 0 3.5z"/><path d="m92.808 94.85h-75.308a1.75 1.75 0 0 1 0-3.5h75.308a1.75 1.75 0 0 1 0 3.5z"/><path d="m92.808 80.4h-75.308a1.75 1.75 0 0 1 0-3.5h75.308a1.75 1.75 0 0 1 0 3.5z"/><path d="m92.808 109.294h-75.308a1.75 1.75 0 0 1 0-3.5h75.308a1.75 1.75 0 0 1 0 3.5z"/><path d="m92.808 94.85h-75.308a1.75 1.75 0 0 1 0-3.5h75.308a1.75 1.75 0 0 1 0 3.5z"/></g></svg>
