<svg xmlns="http://www.w3.org/2000/svg" xmlns:xlink="http://www.w3.org/1999/xlink" width="24px" height="24px" viewBox="0 0 24 24" version="1.1" style="&#10;">
    <!-- Generator: sketchtool 49.3 (51167) - http://www.bohemiancoding.com/sketch -->
    <title>B2A170CC-8352-41CC-9E89-91825A8BB7A6</title>
    <desc>Created with sketchtool.</desc>
    <defs/>
    <g id="Icons" stroke="none" stroke-width="1" fill="none" fill-rule="evenodd" style="&#10;    fill: black;&#10;">
        <g id="Icons/hot-orange" fill="#F7941D" fill-rule="nonzero" style="&#10;    fill: black;&#10;">
            <path d="M13.2353493,5 C13.2353493,5 13.7210502,6.73933427 13.7210502,8.15049226 C13.7210502,9.50257853 12.8349742,10.5986873 11.482888,10.5986873 C10.1242382,10.5986873 9.10032818,9.50257853 9.10032818,8.15049226 L9.12001875,7.91420534 C7.79418659,9.48945148 7,11.5307079 7,13.7491796 C7,16.6502579 9.34974215,19 12.2508204,19 C15.1518987,19 17.5016409,16.6502579 17.5016409,13.7491796 C17.5016409,10.2114393 15.8016878,7.0543835 13.2353493,5 Z M12.0604782,17.0309423 C10.8921707,17.0309423 9.94702297,16.1120488 9.94702297,14.9699953 C9.94702297,13.9067042 10.6361932,13.1584623 11.7913737,12.9221753 C12.9531177,12.6858884 14.1542429,12.1279887 14.8237225,11.2287857 C15.0797,12.0754805 15.2109705,12.96812 15.2109705,13.8804501 C15.2109705,15.6197843 13.7998125,17.0309423 12.0604782,17.0309423 Z" id="Shape"/>
        </g>
    </g>
</svg>
